<svg width="32" height="32" viewBox="0 0 32 32" fill="none" xmlns="http://www.w3.org/2000/svg">
<path d="M14.6899 3.75259C14.7471 3.44673 14.9094 3.17048 15.1487 2.97168C15.3881 2.77288 15.6894 2.66406 16.0006 2.66406C16.3117 2.66406 16.6131 2.77288 16.8525 2.97168C17.0918 3.17048 17.2541 3.44673 17.3113 3.75259L18.7126 11.1633C18.8121 11.6901 19.0682 12.1747 19.4473 12.5539C19.8264 12.933 20.3111 13.1891 20.8379 13.2886L28.2486 14.6899C28.5545 14.7471 28.8307 14.9094 29.0295 15.1487C29.2283 15.3881 29.3371 15.6894 29.3371 16.0006C29.3371 16.3117 29.2283 16.6131 29.0295 16.8525C28.8307 17.0918 28.5545 17.2541 28.2486 17.3113L20.8379 18.7126C20.3111 18.8121 19.8264 19.0682 19.4473 19.4473C19.0682 19.8264 18.8121 20.3111 18.7126 20.8379L17.3113 28.2486C17.2541 28.5545 17.0918 28.8307 16.8525 29.0295C16.6131 29.2283 16.3117 29.3371 16.0006 29.3371C15.6894 29.3371 15.3881 29.2283 15.1487 29.0295C14.9094 28.8307 14.7471 28.5545 14.6899 28.2486L13.2886 20.8379C13.1891 20.3111 12.933 19.8264 12.5539 19.4473C12.1747 19.0682 11.6901 18.8121 11.1633 18.7126L3.75259 17.3113C3.44673 17.2541 3.17048 17.0918 2.97168 16.8525C2.77288 16.6131 2.66406 16.3117 2.66406 16.0006C2.66406 15.6894 2.77288 15.3881 2.97168 15.1487C3.17048 14.9094 3.44673 14.7471 3.75259 14.6899L11.1633 13.2886C11.6901 13.1891 12.1747 12.933 12.5539 12.5539C12.933 12.1747 13.1891 11.6901 13.2886 11.1633L14.6899 3.75259Z" stroke="#C27AFF" stroke-width="2.66667" stroke-linecap="round" stroke-linejoin="round"/>
<path d="M26.666 2.66602V7.99935" stroke="#C27AFF" stroke-width="2.66667" stroke-linecap="round" stroke-linejoin="round"/>
<path d="M29.3333 5.33398H24" stroke="#C27AFF" stroke-width="2.66667" stroke-linecap="round" stroke-linejoin="round"/>
<path d="M5.33268 29.3333C6.80544 29.3333 7.99935 28.1394 7.99935 26.6667C7.99935 25.1939 6.80544 24 5.33268 24C3.85992 24 2.66602 25.1939 2.66602 26.6667C2.66602 28.1394 3.85992 29.3333 5.33268 29.3333Z" stroke="#C27AFF" stroke-width="2.66667" stroke-linecap="round" stroke-linejoin="round"/>
</svg>
