<svg width="32" height="32" viewBox="0 0 32 32" fill="none" xmlns="http://www.w3.org/2000/svg">
<path d="M29.3327 22.6667C29.3327 23.3739 29.0517 24.0522 28.5516 24.5523C28.0515 25.0524 27.3733 25.3333 26.666 25.3333H9.10335C8.39616 25.3335 7.718 25.6145 7.21802 26.1147L4.28202 29.0507C4.14962 29.183 3.98095 29.2732 3.79733 29.3097C3.61372 29.3462 3.42339 29.3275 3.25042 29.2558C3.07746 29.1842 2.92962 29.0629 2.8256 28.9072C2.72157 28.7516 2.66604 28.5685 2.66602 28.3813V6.66667C2.66602 5.95942 2.94697 5.28115 3.44706 4.78105C3.94716 4.28095 4.62544 4 5.33268 4H26.666C27.3733 4 28.0515 4.28095 28.5516 4.78105C29.0517 5.28115 29.3327 5.95942 29.3327 6.66667V22.6667Z" stroke="#51A2FF" stroke-width="2.66667" stroke-linecap="round" stroke-linejoin="round"/>
</svg>
