<svg width="32" height="32" viewBox="0 0 32 32" fill="none" xmlns="http://www.w3.org/2000/svg">
<path d="M21.3327 28V25.3333C21.3327 23.9188 20.7708 22.5623 19.7706 21.5621C18.7704 20.5619 17.4138 20 15.9993 20H7.99935C6.58486 20 5.22831 20.5619 4.22811 21.5621C3.22792 22.5623 2.66602 23.9188 2.66602 25.3333V28" stroke="#6D28D9" stroke-width="2.66667" stroke-linecap="round" stroke-linejoin="round"/>
<path d="M21.334 4.16992C22.4777 4.46641 23.4905 5.13427 24.2136 6.06867C24.9366 7.00307 25.3289 8.15111 25.3289 9.33259C25.3289 10.5141 24.9366 11.6621 24.2136 12.5965C23.4905 13.5309 22.4777 14.1988 21.334 14.4953" stroke="#6D28D9" stroke-width="2.66667" stroke-linecap="round" stroke-linejoin="round"/>
<path d="M29.334 28.0005V25.3338C29.3331 24.1521 28.9398 23.0042 28.2158 22.0702C27.4918 21.1363 26.4782 20.4693 25.334 20.1738" stroke="#6D28D9" stroke-width="2.66667" stroke-linecap="round" stroke-linejoin="round"/>
<path d="M11.9993 14.6667C14.9449 14.6667 17.3327 12.2789 17.3327 9.33333C17.3327 6.38781 14.9449 4 11.9993 4C9.05383 4 6.66602 6.38781 6.66602 9.33333C6.66602 12.2789 9.05383 14.6667 11.9993 14.6667Z" stroke="#6D28D9" stroke-width="2.66667" stroke-linecap="round" stroke-linejoin="round"/>
</svg>
